<?xml version="1.0" encoding="UTF-8" standalone="no"?><!DOCTYPE svg PUBLIC "-//W3C//DTD SVG 1.1//EN" "http://www.w3.org/Graphics/SVG/1.1/DTD/svg11.dtd"><svg width="100%" height="100%" viewBox="0 0 90 74" version="1.1" xmlns="http://www.w3.org/2000/svg" xmlns:xlink="http://www.w3.org/1999/xlink" xml:space="preserve" xmlns:serif="http://www.serif.com/" style="fill-rule:evenodd;clip-rule:evenodd;stroke-linejoin:round;stroke-miterlimit:2;"><g id="Background"><path d="M45.767,72.384c-4.143,-0.114 -4.063,-4.645 -20.342,-7.4c-8.305,-1.405 -21.162,-0.377 -22.226,-1.156c-0.971,-0.71 -0.715,-0.982 -0.739,-14.867c-0.006,-3.486 0.007,-38.392 0.012,-38.464c0.018,-0.279 -0.309,-1.943 4.116,-1.567c0.631,0.054 0.48,0.374 0.494,6.465c0.1,41.282 -0.629,41.769 0.783,42.782c2.157,1.549 17.455,-0.117 33.466,8.981c3.516,1.998 4.791,2.846 4.882,2.125c0.789,-6.279 0.341,-56.888 0.893,-57.471c3.757,-3.965 13.39,-7.861 27.096,-8.834c4.795,-0.34 8.314,-1.427 8.369,2.126c0.051,3.263 -0.36,3.636 0.423,3.791c1.436,0.284 4.94,-1.009 4.935,2.09c-0.091,51.529 0.358,51.792 -0.525,52.654c-1.976,1.931 -17.211,-2.219 -34.769,5.168c-3.327,1.399 -4.652,3.098 -6.869,3.577Z" style="fill:#7a2ac3;"/><path d="M21.993,58.131c-8.677,-1.501 -11.941,-1.148 -12.677,-2.576c-0.371,-0.721 -0.057,-33.977 -0.173,-40.895c-0.191,-11.481 0.042,-11.701 0.909,-12.146c0.907,-0.466 10.341,0.635 14.662,1.314c12.688,1.994 19.286,7.236 19.249,8.624c-0.152,5.63 -0.276,46.985 -0.449,52.917c-0.057,1.972 -2.792,-4.19 -21.522,-7.237Z" style="fill:#783fd5;"/><path d="M69.053,55.424c-4.536,-0.003 -6.211,0.43 -6.226,-1.808c-0.043,-6.273 0.007,-21.189 0.013,-23.031c0.003,-0.988 -0.535,-0.721 -6.528,-0.73c-2.937,-0.005 -4.823,0.438 -4.84,-1.72c-0.04,-5.138 -0.238,-6.074 1.655,-6.125c3.096,-0.084 9.417,0.231 9.613,-0.209c0.371,-0.831 -0.376,-8.912 0.467,-9.804c0.156,-0.165 0.127,-0.604 5.844,-0.465c2.702,0.066 1.416,1.557 1.731,9.986c0.026,0.706 0.442,0.446 9.05,0.509c2.738,0.02 2.293,1.185 2.277,5.863c-0.011,3.173 -1.801,1.634 -10.851,1.972c-0.613,0.023 -0.448,0.358 -0.482,7.583c-0.006,1.176 0.015,1.149 -0.002,14.701c-0.002,1.916 0.385,3.007 -1.721,3.278Z" style="fill:#fafafb;"/><path d="M17.113,32.69c1.539,0.285 1.626,0.108 1.631,-0.153c0.194,-10.606 -0.409,-11.094 0.861,-11.659c2.005,-0.894 9.215,-3.651 10.02,-3.959c0.756,-0.289 1.351,0.294 1.378,0.931c0.049,1.155 0.395,9.275 0.159,14.453c-0.296,6.498 -9.823,3.7 -6.878,-0.933c0.71,-1.116 2.452,-1.799 3.613,-1.555c0.738,0.155 1.122,0.549 1.134,-0.217c0.01,-0.621 0.123,-7.55 -0.023,-7.765c-0.151,-0.223 -0.245,-0.077 -6.291,2.308c-0.977,0.385 -1.805,0.399 -1.826,1.544c-0.162,8.769 1.216,12.858 -3.787,13.382c-3.964,0.415 -5.821,-5.919 0.01,-6.377Z" style="fill:#f9f9fa;"/><path d="M32.301,43.907c0.739,0.064 0.733,0.044 0.99,0.109c1.381,0.348 1.012,-0.476 1.041,-1.913c0.234,-11.392 0.226,-13.224 1.047,-11.93c0.924,1.456 1.474,1.755 3.989,4.127c2.182,2.057 0.796,5.729 0.679,4.204c-0.094,-1.225 -0.229,-1.751 -3.112,-3.206c-0.774,-0.391 -0.545,2.223 -0.546,2.393c-0.089,9.98 0.296,11.361 -2.597,12.547c-5.271,2.161 -8.359,-5.661 -1.491,-6.33Z" style="fill:#f9f9fa;"/></g></svg>